<?xml version="1.0" encoding="utf-8"?>
<svg version="1.2" baseProfile="tiny" xmlns="http://www.w3.org/2000/svg" xmlns:xlink="http://www.w3.org/1999/xlink">
<path fill="#F08A21" d="M97.275,139.133c-12.688-12.33-19.031-27.279-19.031-44.852c0-17.571,6.344-32.522,19.031-44.853
	s28.024-18.554,46.014-18.674c15.011,0,28.472,4.587,40.386,13.76c0.952,0.835,1.519,1.876,1.697,3.127
	c0.179,1.251-0.15,2.295-0.982,3.127c-0.715,1.072-1.698,1.669-2.949,1.787c-1.251,0.12-2.295-0.179-3.127-0.89
	c-10.364-8.1-22.041-12.151-35.024-12.151c-15.607,0-28.89,5.361-39.849,16.083C92.479,66.315,87,79.243,87,94.37
	c0,15.13,5.479,27.997,16.44,38.599c10.959,10.604,23.735,15.904,38.33,15.904c14.592,0,26.653-4.049,36.186-12.152
	c1.072-0.715,2.233-0.982,3.484-0.805c1.251,0.18,2.173,0.805,2.771,1.877c0.832,0.836,1.189,1.908,1.071,3.217
	c-0.119,1.312-0.655,2.322-1.607,3.037c-11.794,9.055-25.258,13.582-40.386,13.582C125.3,157.629,109.963,151.463,97.275,139.133z
	"/>
<path fill="#F08A21" d="M203.509,121.889V74.178c0-1.189,0.416-2.203,1.251-3.038c0.832-0.832,1.845-1.251,3.037-1.251
	c1.189,0,2.203,0.419,3.038,1.251c0.832,0.835,1.251,1.849,1.251,3.038v47.711c0,7.506,2.619,13.881,7.862,19.121
	c5.241,5.244,11.554,7.924,18.942,8.041c7.505-0.117,13.907-2.797,19.209-8.041c5.3-5.24,7.952-11.615,7.952-19.121V74.178
	c0-1.189,0.447-2.203,1.341-3.038c0.894-0.832,1.935-1.251,3.127-1.251c1.189,0,2.203,0.419,3.038,1.251
	c0.832,0.835,1.25,1.849,1.25,3.038v47.711c0,9.891-3.484,18.316-10.453,25.285c-6.97,6.971-15.398,10.455-25.285,10.455
	c-9.89,0-18.289-3.484-25.196-10.455C206.962,140.205,203.509,131.779,203.509,121.889z"/>
<path fill="#F08A21" d="M300.54,153.34V74.535c0-1.189,0.416-2.203,1.25-3.038c0.832-0.832,1.846-1.251,3.038-1.251
	c1.189,0,2.203,0.419,3.038,1.251c0.832,0.835,1.251,1.849,1.251,3.038v19.299c0.475-0.952,0.894-1.667,1.251-2.144
	c9.172-14.296,20.846-21.444,35.024-21.444c1.189,0,2.202,0.419,3.037,1.251c0.832,0.835,1.251,1.849,1.251,3.038
	c0,1.192-0.419,2.206-1.251,3.038c-0.835,0.835-1.848,1.251-3.037,1.251c-9.532,0-17.99,4.766-25.375,14.295
	c-4.289,5.718-7.804,12.51-10.543,20.371c-0.24,0.479-0.357,0.955-0.357,1.43v38.42c0,1.191-0.419,2.205-1.251,3.037
	c-0.835,0.836-1.849,1.252-3.038,1.252c-1.192,0-2.206-0.416-3.038-1.252C300.956,155.545,300.54,154.531,300.54,153.34z"/>
<path fill="#F08A21" d="M372.731,144.674c-8.103-8.637-12.151-18.912-12.151-30.826c0-11.91,4.049-22.186,12.151-30.825
	c8.1-8.636,17.869-12.956,29.306-12.956s21.204,4.32,29.307,12.956c8.1,8.639,12.151,18.915,12.151,30.825
	c0,11.914-4.052,22.189-12.151,30.826c-8.103,8.639-17.87,12.955-29.307,12.955S380.831,153.312,372.731,144.674z M402.037,78.466
	c-8.935,0-16.649,3.457-23.141,10.364c-6.495,6.911-9.739,15.22-9.739,24.927c0,9.711,3.244,18.021,9.739,24.93
	c6.491,6.91,14.206,10.363,23.141,10.363s16.646-3.453,23.142-10.363c6.491-6.908,9.738-15.219,9.738-24.93
	c0-9.707-3.247-18.017-9.738-24.927C418.684,81.923,410.972,78.466,402.037,78.466z"/>
<path fill="#71CEE6" d="M16.005,151.438c0,3.416,2.773,6.189,6.189,6.189c3.422,0,6.192-2.773,6.192-6.189l0.005-51.929h2.758
	l-0.019,51.929c0,3.416,2.771,6.189,6.19,6.189c3.418,0,6.188-2.773,6.188-6.189l0.027-89.526h2.715v32.992
	c0,6.636,8.657,6.636,8.639,0V61.208c0-7.333-4.309-14.518-12.888-14.518l-24.747-0.011c-7.817,0-12.715,6.374-12.715,14.327
	v33.897c0,6.589,8.705,6.589,8.705,0V61.912h2.771L16.005,151.438z"/>
<path fill="#71CEE6" d="M30.945,12.491c-8.323-0.611-15.624,5.914-16.308,14.577c-0.679,8.656,5.521,16.174,13.853,16.786
	c8.319,0.605,15.624-5.917,16.301-14.578C45.475,20.614,39.272,13.103,30.945,12.491z M39.748,34.398l-11.211-5.341
	l-0.071-10.458l1.899-0.01l0.062,9.278l10.139,4.831L39.748,34.398z"/>
</svg>